<?xml version="1.0" standalone="no"?>
<!DOCTYPE svg PUBLIC "-//W3C//DTD SVG 20010904//EN"
 "http://www.w3.org/TR/2001/REC-SVG-20010904/DTD/svg10.dtd">
<svg version="1.0" xmlns="http://www.w3.org/2000/svg"
 width="128.000000pt" height="128.000000pt" viewBox="0 0 128.000000 128.000000"
 preserveAspectRatio="xMidYMid meet">

<g transform="translate(0.000000,128.000000) scale(0.100000,-0.100000)"
fill="#000000" stroke="none">
<path d="M175 1026 c-61 -28 -95 -85 -95 -162 l0 -44 561 0 561 0 -4 60 c-5
64 -22 98 -72 134 -27 20 -40 21 -474 23 -357 2 -453 0 -477 -11z"/>
<path d="M82 541 c3 -219 5 -226 72 -275 27 -21 38 -21 486 -21 448 0 459 0
486 21 67 49 69 56 72 275 l3 199 -561 0 -561 0 3 -199z m352 -83 c8 -13 8
-23 0 -35 -9 -14 -28 -19 -88 -21 -81 -3 -106 6 -106 37 0 34 22 42 104 39 62
-2 81 -7 90 -20z m160 0 c17 -28 -5 -52 -48 -56 -56 -5 -87 33 -54 66 18 18
89 11 102 -10z"/>
</g>
</svg>
