<?xml version="1.0" standalone="no"?>
<!DOCTYPE svg PUBLIC "-//W3C//DTD SVG 20010904//EN"
 "http://www.w3.org/TR/2001/REC-SVG-20010904/DTD/svg10.dtd">
<svg version="1.0" xmlns="http://www.w3.org/2000/svg"
 width="128.000000pt" height="128.000000pt" viewBox="0 0 128.000000 128.000000"
 preserveAspectRatio="xMidYMid meet">

<g transform="translate(0.000000,128.000000) scale(0.100000,-0.100000)"
fill="#000000" stroke="none">
<path d="M610 910 c-283 -109 -519 -205 -524 -213 -19 -30 4 -45 140 -91 75
-25 140 -44 143 -42 3 2 140 85 304 185 164 100 303 181 308 179 8 -3 -299
-293 -431 -408 -27 -24 -29 -31 -38 -145 -5 -75 -5 -125 1 -132 7 -9 30 7 90
61 l80 74 139 -106 c136 -104 140 -106 166 -92 24 14 30 36 119 435 51 231 93
428 93 438 0 22 -35 57 -57 56 -10 0 -250 -90 -533 -199z"/>
</g>
</svg>
